# xmcd
#
# Track frame offsets:
#	150
#	40020
#	61837
#	84000
#	117031
#	142119
#	162293
#	181072
#	202284
#	222210
#	247634
#	267271
#
# Disc length: 3949 seconds
#
# Revision: 3
# Processed by: cddbd v1.5.2PL0 Copyright (c) Steve Scherf et al.
# Submitted via: EZCDAudioConverter 8.0.2.1
#
DISCID=9b0f6b0c
DTITLE=Various Artist - Top Hits 38. Dư Âm Tình Ta
DYEAR=2009
DGENRE=Contemporary Pop
TTITLE0=V.A - LK Paris By Night Top Hits
TTITLE1=Tú Quyên, Như Loan - LK Hỡi người tình
TTITLE2=Minh Tuyết, Trịnh Lam - Dư âm tình ta
TTITLE3=Dương Triệu Vũ, Bảo Hân - Nhạc Kịch. Đi tìm nửa vầng trăng, Tiễn anh
TTITLE3=về với người, Tình là gì
TTITLE4=Nguyệt Anh - Thùy Vân - Khi người xa tôi, Chuyện tình thường thế thôi
TTITLE5=Quỳnh Vi, Lam Anh - Thôi về đi
TTITLE6=Tóc Tiên - Tóc mây
TTITLE7=Mai Tiến Dũng, Hương Giang - Cứ ngủ say
TTITLE8=Thanh Bùi - Mirror, Mirror! Gương thần, gương thần
TTITLE9=Don Hồ,  Minh Tuyết - LK Tình em ngọn nến, Tàn Tro
TTITLE10=Nguyễn Hung, Hồ Lệ Thu - Một mai em đii - Ne Me Quittes...
TTITLE11=Thủy Tiên, Lưu Bích, Lương Tùng Quang - Medley New Wave 80's
EXTD=
EXTT0=
EXTT1=
EXTT2=
EXTT3=
EXTT4=
EXTT5=
EXTT6=
EXTT7=
EXTT8=
EXTT9=
EXTT10=
EXTT11=
PLAYORDER=
